<svg
  width="24"
  height="24"
  viewBox="0 0 24 24"
  fill="none"
  xmlns="http://www.w3.org/2000/svg"
>
  <path
    d="M12 12C12 10.5272 13.1939 9.33331 14.6667 9.33331V9.33331C16.1394 9.33331 17.3333 10.5272 17.3333 12V12C17.3333 13.4727 16.1394 14.6666 14.6667 14.6666V14.6666C13.1939 14.6666 12 13.4727 12 12V12Z"
    fill="#1ABCFE"
  />
  <path
    d="M6.66667 12C6.66667 10.5272 7.86057 9.33331 9.33333 9.33331H12V14.6666H9.33333C7.86057 14.6666 6.66667 13.4727 6.66667 12V12Z"
    fill="#A259FF"
  />
  <path
    d="M6.66667 6.66667C6.66667 5.19391 7.86057 4 9.33333 4H12V9.33333H9.33333C7.86057 9.33333 6.66667 8.13943 6.66667 6.66667V6.66667Z"
    fill="#F24E1E"
  />
  <path
    d="M12 9.33331L12 3.99998L14.6667 3.99998C16.1394 3.99998 17.3333 5.19389 17.3333 6.66665V6.66665C17.3333 8.13941 16.1394 9.33331 14.6667 9.33331L12 9.33331Z"
    fill="#FF7262"
  />
  <path
    d="M9.33333 20C7.86057 20 6.66667 18.8061 6.66667 17.3333V17.3333C6.66667 15.8606 7.86057 14.6667 9.33333 14.6667L12 14.6667L12 17.3333C12 18.8061 10.8061 20 9.33333 20V20Z"
    fill="#0ACF83"
  />
</svg>
