<svg
  width="247"
  height="120"
  viewBox="0 0 247 120"
  fill="none"
  xmlns="http://www.w3.org/2000/svg"
>
  <rect width="246.667" height="120" rx="4" fill="var(--color-bg-secondary)" />
  <path
    fill-rule="evenodd"
    clip-rule="evenodd"
    d="M124.743 83.9593C137.342 83.2298 147.333 72.7818 147.333 60C147.333 46.7452 136.588 36 123.333 36C110.079 36 99.3335 46.7452 99.3335 60C99.3335 72.1848 108.414 82.2487 120.177 83.7942C117.626 82.4127 117.684 78.302 120.805 77.2617L124.796 75.9313C126.012 75.5262 126.012 73.8072 124.796 73.4021C123.027 72.8123 121.833 71.1565 121.833 69.2914L121.833 66H120.333C117.02 66 114.333 63.3137 114.333 60V54C114.333 53.4477 114.781 53 115.333 53H117.833V48C117.833 47.1716 118.505 46.5 119.333 46.5C120.162 46.5 120.833 47.1716 120.833 48V53H125.833V48C125.833 47.1716 126.505 46.5 127.333 46.5C128.162 46.5 128.833 47.1716 128.833 48V53H131.333C131.886 53 132.333 53.4477 132.333 54V60C132.333 63.3137 129.647 66 126.333 66H124.833V69.2914C124.833 69.8652 125.201 70.3746 125.745 70.556C129.695 71.8728 129.695 77.4605 125.745 78.7773L121.754 80.1077C121.573 80.1678 121.487 80.2571 121.438 80.3369C121.382 80.4299 121.347 80.5588 121.359 80.7037C121.37 80.8486 121.424 80.9706 121.495 81.0535C121.556 81.1247 121.654 81.1995 121.842 81.2307C123.297 81.4732 124.424 82.5721 124.743 83.9593Z"
    fill="#C8D2D8"
  />
</svg>
