<svg
  width="200"
  height="120"
  viewBox="0 0 200 120"
  fill="none"
  xmlns="http://www.w3.org/2000/svg"
>
  <rect width="200" height="120" fill="var(--color-bg-ghost)" />
  <path
    fill-rule="evenodd"
    clip-rule="evenodd"
    d="M105 60C105 62.7614 102.761 65 100 65C97.2386 65 95 62.7614 95 60C95 57.2386 97.2386 55 100 55C102.761 55 105 57.2386 105 60ZM103.571 60C103.571 61.9724 101.972 63.5714 100 63.5714C99.2721 63.5714 98.595 63.3537 98.0304 62.9797L102.98 58.0304C103.354 58.595 103.571 59.2721 103.571 60ZM97.0203 61.9696L101.97 57.0203C101.405 56.6463 100.728 56.4286 100 56.4286C98.0276 56.4286 96.4286 58.0276 96.4286 60C96.4286 60.7279 96.6463 61.405 97.0203 61.9696Z"
    fill="var(--color-typo-primary)"
    fill-opacity="0.3"
  />
</svg>
