<svg
  width="344"
  height="120"
  viewBox="0 0 344 120"
  fill="none"
  xmlns="http://www.w3.org/2000/svg"
>
  <g clip-path="url(#clip0_607_13147)">
    <rect width="344" height="120" rx="4" fill="black" />
    <rect x="-35" width="414" height="120" fill="var(--color-bg-secondary)" />
    <path
      fill-rule="evenodd"
      clip-rule="evenodd"
      d="M173.409 83.9593C186.008 83.2298 196 72.7818 196 60C196 46.7452 185.255 36 172 36C158.745 36 148 46.7452 148 60C148 72.1848 157.08 82.2487 168.843 83.7942C166.293 82.4127 166.35 78.302 169.471 77.2617L173.463 75.9313C174.678 75.5262 174.678 73.8072 173.463 73.4021C171.693 72.8123 170.5 71.1565 170.5 69.2914V66H169C165.686 66 163 63.3137 163 60V54C163 53.4477 163.448 53 164 53H166.5V48C166.5 47.1716 167.172 46.5 168 46.5C168.828 46.5 169.5 47.1716 169.5 48V53H174.5V48C174.5 47.1716 175.172 46.5 176 46.5C176.828 46.5 177.5 47.1716 177.5 48V53H180C180.552 53 181 53.4477 181 54V60C181 63.3137 178.314 66 175 66H173.5V69.2914C173.5 69.8652 173.867 70.3746 174.411 70.556C178.362 71.8728 178.362 77.4605 174.411 78.7773L170.42 80.1077C170.24 80.1678 170.154 80.2571 170.105 80.3369C170.048 80.4299 170.014 80.5588 170.025 80.7037C170.037 80.8486 170.09 80.9706 170.161 81.0535C170.222 81.1247 170.321 81.1995 170.508 81.2307C171.963 81.4732 173.091 82.5721 173.409 83.9593Z"
      fill="var(--color-bg-warning)"
    />
  </g>
  <defs>
    <clipPath id="clip0_607_13147">
      <rect width="344" height="120" rx="4" fill="white" />
    </clipPath>
  </defs>
</svg>
