<svg
  width="64"
  height="64"
  viewBox="0 0 64 64"
  fill="none"
  xmlns="http://www.w3.org/2000/svg"
>
  <path
    d="M0 16C0 7.16344 7.16344 0 16 0H48C56.8366 0 64 7.16344 64 16V48C64 56.8366 56.8366 64 48 64H16C7.16344 64 0 56.8366 0 48V16Z"
    fill="url(#paint0_linear_0_1)"
  />
  <path
    d="M0 16C0 7.16344 7.16344 0 16 0H48C56.8366 0 64 7.16344 64 16V48C64 56.8366 56.8366 64 48 64H16C7.16344 64 0 56.8366 0 48V16Z"
    fill="white"
    fill-opacity="0.3"
  />
  <path
    fill-rule="evenodd"
    clip-rule="evenodd"
    d="M40 37V28C40 23.5817 36.4183 20 32 20C27.5817 20 24 23.5817 24 28V37C24 41.4183 27.5817 45 32 45C36.4183 45 40 41.4183 40 37ZM32 18C26.4772 18 22 22.4772 22 28V37C22 42.5228 26.4772 47 32 47C37.5228 47 42 42.5228 42 37V28C42 22.4772 37.5228 18 32 18Z"
    fill="white"
  />
  <path
    d="M31 24.5C31 25.3284 30.3284 26 29.5 26C28.6716 26 28 25.3284 28 24.5C28 23.6716 28.6716 23 29.5 23C30.3284 23 31 23.6716 31 24.5Z"
    fill="white"
  />
  <path
    d="M36 24.5C36 25.3284 35.3284 26 34.5 26C33.6716 26 33 25.3284 33 24.5C33 23.6716 33.6716 23 34.5 23C35.3284 23 36 23.6716 36 24.5Z"
    fill="white"
  />
  <path
    d="M41 28H44C44.5523 28 45 28.4477 45 29C45 29.5523 44.5523 30 44 30H41V28Z"
    fill="white"
  />
  <path
    d="M19 29C19 28.4477 19.4477 28 20 28H23V30H20C19.4477 30 19 29.5523 19 29Z"
    fill="white"
  />
  <path
    d="M41 32H44C44.5523 32 45 32.4477 45 33C45 33.5523 44.5523 34 44 34H41V32Z"
    fill="white"
  />
  <path
    d="M19 33C19 32.4477 19.4477 32 20 32H23V34H20C19.4477 34 19 33.5523 19 33Z"
    fill="white"
  />
  <path
    d="M41 36H44C44.5523 36 45 36.4477 45 37C45 37.5523 44.5523 38 44 38H41V36Z"
    fill="white"
  />
  <path
    d="M19 37C19 36.4477 19.4477 36 20 36H23V38H20C19.4477 38 19 37.5523 19 37Z"
    fill="white"
  />
  <path
    d="M53 19C53 18.4477 53.4477 18 54 18V18C54.5523 18 55 18.4477 55 19V46C55 46.5523 54.5523 47 54 47V47C53.4477 47 53 46.5523 53 46V19Z"
    fill="white"
  />
  <path
    d="M9 19C9 18.4477 9.44772 18 10 18V18C10.5523 18 11 18.4477 11 19V46C11 46.5523 10.5523 47 10 47V47C9.44772 47 9 46.5523 9 46V19Z"
    fill="white"
  />
  <defs>
    <linearGradient
      id="paint0_linear_0_1"
      x1="-7.54028e-05"
      y1="63.9999"
      x2="63.9999"
      y2="-5.25147e-05"
      gradientUnits="userSpaceOnUse"
    >
      <stop stop-color="#4D7286" />
      <stop offset="1" stop-color="#6287A4" />
    </linearGradient>
  </defs>
</svg>
