<svg
  width="64"
  height="64"
  viewBox="0 0 64 64"
  fill="none"
  xmlns="http://www.w3.org/2000/svg"
>
  <path
    d="M0 16C0 7.16344 7.16344 0 16 0H48C56.8366 0 64 7.16344 64 16V48C64 56.8366 56.8366 64 48 64H16C7.16344 64 0 56.8366 0 48V16Z"
    fill="url(#paint0_linear_1_11)"
  />
  <path
    d="M0 16C0 7.16344 7.16344 0 16 0H48C56.8366 0 64 7.16344 64 16V48C64 56.8366 56.8366 64 48 64H16C7.16344 64 0 56.8366 0 48V16Z"
    fill="white"
    fill-opacity="0.3"
  />
  <path
    fill-rule="evenodd"
    clip-rule="evenodd"
    d="M28 36V27C28 22.5817 24.4183 19 20 19C15.5817 19 12 22.5817 12 27V36C12 40.4183 15.5817 44 20 44C24.4183 44 28 40.4183 28 36ZM20 17C14.4772 17 10 21.4772 10 27V36C10 41.5228 14.4772 46 20 46C25.5228 46 30 41.5228 30 36V27C30 21.4772 25.5228 17 20 17Z"
    fill="white"
  />
  <path
    d="M20 27.5C20 28.8807 18.8807 30 17.5 30C16.1193 30 15 28.8807 15 27.5C15 26.1193 16.1193 25 17.5 25C18.8807 25 20 26.1193 20 27.5Z"
    fill="white"
  />
  <path
    fill-rule="evenodd"
    clip-rule="evenodd"
    d="M52 36V27C52 22.5817 48.4183 19 44 19C39.5817 19 36 22.5817 36 27V36C36 40.4183 39.5817 44 44 44C48.4183 44 52 40.4183 52 36ZM44 17C38.4772 17 34 21.4772 34 27V36C34 41.5228 38.4772 46 44 46C49.5228 46 54 41.5228 54 36V27C54 21.4772 49.5228 17 44 17Z"
    fill="white"
  />
  <path
    d="M44 27.5C44 28.8807 42.8807 30 41.5 30C40.1193 30 39 28.8807 39 27.5C39 26.1193 40.1193 25 41.5 25C42.8807 25 44 26.1193 44 27.5Z"
    fill="white"
  />
  <defs>
    <linearGradient
      id="paint0_linear_1_11"
      x1="-7.54028e-05"
      y1="63.9999"
      x2="63.9999"
      y2="-5.25147e-05"
      gradientUnits="userSpaceOnUse"
    >
      <stop stop-color="#4D7286" />
      <stop offset="1" stop-color="#6287A4" />
    </linearGradient>
  </defs>
</svg>
